<svg xmlns="http://www.w3.org/2000/svg" xmlns:xlink="http://www.w3.org/1999/xlink" width="170" zoomAndPan="magnify" viewBox="0 0 127.5 52.499999" height="70" preserveAspectRatio="xMidYMid meet" version="1.0"><defs><g/><clipPath id="c67a5dc11d"><path d="M 0.355469 0 L 126.652344 0 L 126.652344 52.003906 L 0.355469 52.003906 Z M 0.355469 0 " clip-rule="nonzero"/></clipPath><clipPath id="6606e00aa5"><path d="M 28 6 L 56 6 L 56 43.886719 L 28 43.886719 Z M 28 6 " clip-rule="nonzero"/></clipPath><clipPath id="d70b2e416e"><path d="M 0.355469 5.996094 L 43 5.996094 L 43 43.886719 L 0.355469 43.886719 Z M 0.355469 5.996094 " clip-rule="nonzero"/></clipPath><clipPath id="42ee73da72"><rect x="0" width="61" y="0" height="42"/></clipPath><clipPath id="3231c28f29"><path d="M 0.03125 1 L 30 1 L 30 5 L 0.03125 5 Z M 0.03125 1 " clip-rule="nonzero"/></clipPath><clipPath id="354a631875"><path d="M 29 1 L 61.84375 1 L 61.84375 5 L 29 5 Z M 29 1 " clip-rule="nonzero"/></clipPath><clipPath id="8edef6c995"><rect x="0" width="62" y="0" height="6"/></clipPath></defs><g clip-path="url(#c67a5dc11d)"><path fill="transparent" d="M 0.355469 0 L 126.652344 0 L 126.652344 52.003906 L 0.355469 52.003906 Z M 0.355469 0 " fill-opacity="1" fill-rule="nonzero"/></g><g clip-path="url(#6606e00aa5)"><path fill="#fab418" d="M 55.722656 43.988281 L 55.71875 43.988281 L 51.933594 42.460938 L 46.078125 40.09375 L 40 37.636719 L 39.234375 36.289062 L 42.164062 33.21875 L 41.324219 31.746094 L 39.65625 28.816406 L 33.996094 18.875 L 31.660156 22.984375 L 28.078125 16.695312 L 30.410156 12.570312 L 34.105469 6.023438 L 37.710938 12.351562 L 45.746094 26.464844 L 47.414062 29.394531 L 54.851562 42.460938 Z M 55.722656 43.988281 " fill-opacity="1" fill-rule="nonzero"/></g><path fill="#fab418" d="M 28.164062 35.472656 L 28.164062 36.824219 L 22.542969 38.996094 L 13.566406 42.460938 L 13.527344 42.460938 L 16.097656 37.910156 L 17.011719 36.289062 L 18.746094 33.21875 L 18.824219 33.21875 L 18.757812 33.195312 L 20.664062 29.824219 L 24.492188 23.042969 L 28.058594 29.308594 L 26.433594 32.15625 L 25.828125 33.21875 L 25.476562 33.84375 C 25.304688 34.140625 25.449219 34.519531 25.773438 34.632812 Z M 28.164062 35.472656 " fill-opacity="1" fill-rule="nonzero"/><g clip-path="url(#d70b2e416e)"><path fill="#fab418" d="M 42.742188 42.453125 L 33.515625 38.890625 L 28.164062 36.824219 L 28.164062 35.472656 L 30.378906 34.695312 C 30.703125 34.582031 30.84375 34.203125 30.675781 33.902344 L 30.648438 33.859375 L 30.285156 33.21875 L 29.917969 32.574219 L 28.058594 29.304688 L 24.492188 23.042969 L 21.988281 18.640625 L 16.5625 28.164062 L 14.613281 31.59375 L 13.6875 33.21875 C 13.6875 33.21875 17.011719 36.285156 17.011719 36.285156 L 16.097656 37.910156 L 9.585938 40.421875 L 4.3125 42.457031 L 0.355469 43.988281 L 1.226562 42.460938 L 8.710938 29.316406 L 10.710938 25.800781 L 18.386719 12.320312 L 21.984375 5.996094 L 25.585938 12.320312 L 28.078125 16.695312 L 31.65625 22.984375 L 35.820312 30.296875 L 37.484375 33.21875 L 37.488281 33.226562 L 39.230469 36.289062 L 40 37.636719 Z M 42.742188 42.453125 " fill-opacity="1" fill-rule="nonzero"/></g><g transform="matrix(1, 0, 0, 1, 55, 5)"><g clip-path="url(#42ee73da72)"><g fill="#ffffff" fill-opacity="1"><g transform="translate(0.746082, 29.623834)"><g><path d="M 12.703125 -13.5 C 10.703125 -14.300781 9.128906 -14.703125 7.984375 -14.703125 C 6.535156 -14.703125 5.8125 -14.390625 5.8125 -13.765625 C 5.8125 -13.492188 6.066406 -13.234375 6.578125 -12.984375 C 6.722656 -12.910156 7.484375 -12.613281 8.859375 -12.09375 C 11.015625 -11.289062 12.550781 -10.425781 13.46875 -9.5 C 14.507812 -8.445312 15.03125 -7.082031 15.03125 -5.40625 C 15.03125 -1.382812 12.488281 0.625 7.40625 0.625 C 5.164062 0.625 2.863281 0.117188 0.5 -0.890625 L 1.40625 -6 C 4.175781 -4.976562 6.253906 -4.46875 7.640625 -4.46875 C 8.773438 -4.46875 9.34375 -4.765625 9.34375 -5.359375 C 9.34375 -5.878906 8.632812 -6.441406 7.21875 -7.046875 C 4.800781 -8.085938 3.179688 -8.972656 2.359375 -9.703125 C 1.179688 -10.734375 0.59375 -12.085938 0.59375 -13.765625 C 0.59375 -15.878906 1.394531 -17.441406 3 -18.453125 C 4.21875 -19.203125 5.75 -19.578125 7.59375 -19.578125 C 9.40625 -19.578125 11.347656 -19.195312 13.421875 -18.4375 Z M 12.703125 -13.5 "/></g></g></g><g fill="#ffffff" fill-opacity="1"><g transform="translate(16.146602, 29.623834)"><g><path d="M 26.53125 0.25 L 20.890625 0.25 L 20.890625 -11.5 L 16.984375 0.25 L 10.96875 0.25 L 7.203125 -11.328125 L 7.203125 0.25 L 1.578125 0.25 L 1.578125 -19.203125 L 10.703125 -19.203125 L 14 -6.75 L 17.609375 -19.203125 L 26.53125 -19.203125 Z M 26.53125 0.25 "/></g></g></g><g fill="#ffffff" fill-opacity="1"><g transform="translate(44.375069, 29.623834)"><g><path d="M 7.328125 -4.4375 L 15.046875 -4.4375 L 15.046875 0.25 L 1.703125 0.25 L 1.703125 -19.203125 L 7.328125 -19.203125 Z M 7.328125 -4.4375 "/></g></g></g></g></g></svg>
